HIERARCHY
ROOT Hips
{
	OFFSET 0.046577 -0.000013 1.010676
	CHANNELS 6 Xposition Yposition Zposition Xrotation Yrotation Zrotation
	JOINT Spine
	{
		OFFSET 0.004554 -0.002239 0.098343
		CHANNELS 6 Xposition Yposition Zposition Xrotation Yrotation Zrotation
		JOINT Spine1
		{
			OFFSET 0.007462 0.014882 0.129431
			CHANNELS 6 Xposition Yposition Zposition Xrotation Yrotation Zrotation
			JOINT Spine2
			{
				OFFSET 0.007545 0.021619 0.119634
				CHANNELS 6 Xposition Yposition Zposition Xrotation Yrotation Zrotation
				JOINT Neck
				{
					OFFSET 0.008537 0.013102 0.154787
					CHANNELS 6 Xposition Yposition Zposition Xrotation Yrotation Zrotation
					JOINT Head
					{
						OFFSET 0.002391 -0.038956 0.116262
						CHANNELS 6 Xposition Yposition Zposition Xrotation Yrotation Zrotation
						JOINT HeadTop_End
						{
							OFFSET 0.007884 -0.036650 0.226318
							CHANNELS 6 Xposition Yposition Zposition Xrotation Yrotation Zrotation
							JOINT HeadTop_End_end
							{
								OFFSET 0.006035 0.001186 0.123238
								CHANNELS 6 Xposition Yposition Zposition Xrotation Yrotation Zrotation
								End Site
								{
									OFFSET 0.006035 0.001186 0.123237
								}
							}
						}
						JOINT LeftEye
						{
							OFFSET 0.028375 -0.080047 0.089513
							CHANNELS 6 Xposition Yposition Zposition Xrotation Yrotation Zrotation
							JOINT LeftEye_end
							{
								OFFSET 0.006035 0.001186 0.123238
								CHANNELS 6 Xposition Yposition Zposition Xrotation Yrotation Zrotation
								End Site
								{
									OFFSET 0.006035 0.001186 0.123238
								}
							}
						}
						JOINT RightEye
						{
							OFFSET -0.032685 -0.075016 0.092455
							CHANNELS 6 Xposition Yposition Zposition Xrotation Yrotation Zrotation
							JOINT RightEye_end
							{
								OFFSET 0.006035 0.001186 0.123238
								CHANNELS 6 Xposition Yposition Zposition Xrotation Yrotation Zrotation
								End Site
								{
									OFFSET 0.006035 0.001186 0.123238
								}
							}
						}
					}
				}
				JOINT LeftShoulder
				{
					OFFSET 0.055153 0.014232 0.137620
					CHANNELS 6 Xposition Yposition Zposition Xrotation Yrotation Zrotation
					JOINT LeftArm
					{
						OFFSET 0.118080 -0.009128 -0.010491
						CHANNELS 6 Xposition Yposition Zposition Xrotation Yrotation Zrotation
						JOINT LeftForeArm
						{
							OFFSET 0.132791 0.007071 -0.252220
							CHANNELS 6 Xposition Yposition Zposition Xrotation Yrotation Zrotation
							JOINT LeftHand
							{
								OFFSET 0.122668 -0.103811 -0.194078
								CHANNELS 6 Xposition Yposition Zposition Xrotation Yrotation Zrotation
								JOINT LeftHandThumb1
								{
									OFFSET -0.003761 -0.038435 -0.016634
									CHANNELS 6 Xposition Yposition Zposition Xrotation Yrotation Zrotation
									JOINT LeftHandThumb2
									{
										OFFSET -0.009793 -0.035329 -0.019196
										CHANNELS 6 Xposition Yposition Zposition Xrotation Yrotation Zrotation
										JOINT LeftHandThumb3
										{
											OFFSET -0.004308 -0.015957 -0.025618
											CHANNELS 6 Xposition Yposition Zposition Xrotation Yrotation Zrotation
											JOINT LeftHandThumb4
											{
												OFFSET -0.003627 -0.013323 -0.032471
												CHANNELS 6 Xposition Yposition Zposition Xrotation Yrotation Zrotation
												JOINT LeftHandThumb4_end
												{
													OFFSET -0.004290 -0.012556 -0.032695
													CHANNELS 6 Xposition Yposition Zposition Xrotation Yrotation Zrotation
													End Site
													{
														OFFSET -0.004290 -0.012556 -0.032695
													}
												}
											}
										}
									}
								}
								JOINT LeftHandIndex1
								{
									OFFSET 0.035434 -0.069330 -0.068794
									CHANNELS 6 Xposition Yposition Zposition Xrotation Yrotation Zrotation
									JOINT LeftHandIndex2
									{
										OFFSET 0.009565 -0.020855 -0.038338
										CHANNELS 6 Xposition Yposition Zposition Xrotation Yrotation Zrotation
										JOINT LeftHandIndex3
										{
											OFFSET 0.000532 -0.013462 -0.024939
											CHANNELS 6 Xposition Yposition Zposition Xrotation Yrotation Zrotation
											JOINT LeftHandIndex4
											{
												OFFSET -0.004672 -0.013653 -0.030608
												CHANNELS 6 Xposition Yposition Zposition Xrotation Yrotation Zrotation
												JOINT LeftHandIndex4_end
												{
													OFFSET -0.007514 -0.012498 -0.030535
													CHANNELS 6 Xposition Yposition Zposition Xrotation Yrotation Zrotation
													End Site
													{
														OFFSET -0.007514 -0.012498 -0.030535
													}
												}
											}
										}
									}
								}
								JOINT LeftHandMiddle1
								{
									OFFSET 0.042090 -0.045838 -0.079142
									CHANNELS 6 Xposition Yposition Zposition Xrotation Yrotation Zrotation
									JOINT LeftHandMiddle2
									{
										OFFSET 0.015700 -0.017660 -0.039114
										CHANNELS 6 Xposition Yposition Zposition Xrotation Yrotation Zrotation
										JOINT LeftHandMiddle3
										{
											OFFSET 0.002898 -0.015410 -0.031746
											CHANNELS 6 Xposition Yposition Zposition Xrotation Yrotation Zrotation
											JOINT LeftHandMiddle4
											{
												OFFSET -0.010191 -0.009239 -0.031707
												CHANNELS 6 Xposition Yposition Zposition Xrotation Yrotation Zrotation
												JOINT LeftHandMiddle4_end
												{
													OFFSET -0.011693 -0.008658 -0.031351
													CHANNELS 6 Xposition Yposition Zposition Xrotation Yrotation Zrotation
													End Site
													{
														OFFSET -0.011693 -0.008658 -0.031351
													}
												}
											}
										}
									}
								}
								JOINT LeftHandRing1
								{
									OFFSET 0.043265 -0.020672 -0.084165
									CHANNELS 6 Xposition Yposition Zposition Xrotation Yrotation Zrotation
									JOINT LeftHandRing2
									{
										OFFSET 0.014052 -0.010092 -0.038161
										CHANNELS 6 Xposition Yposition Zposition Xrotation Yrotation Zrotation
										JOINT LeftHandRing3
										{
											OFFSET -0.001563 -0.010084 -0.034693
											CHANNELS 6 Xposition Yposition Zposition Xrotation Yrotation Zrotation
											JOINT LeftHandRing4
											{
												OFFSET -0.003598 -0.008015 -0.028489
												CHANNELS 6 Xposition Yposition Zposition Xrotation Yrotation Zrotation
												JOINT LeftHandRing4_end
												{
													OFFSET -0.004174 -0.009187 -0.028053
													CHANNELS 6 Xposition Yposition Zposition Xrotation Yrotation Zrotation
													End Site
													{
														OFFSET -0.004174 -0.009187 -0.028053
													}
												}
											}
										}
									}
								}
								JOINT LeftHandPinky1
								{
									OFFSET 0.041437 0.004533 -0.089282
									CHANNELS 6 Xposition Yposition Zposition Xrotation Yrotation Zrotation
									JOINT LeftHandPinky2
									{
										OFFSET 0.008505 -0.001159 -0.026812
										CHANNELS 6 Xposition Yposition Zposition Xrotation Yrotation Zrotation
										JOINT LeftHandPinky3
										{
											OFFSET 0.001754 -0.004274 -0.021894
											CHANNELS 6 Xposition Yposition Zposition Xrotation Yrotation Zrotation
											JOINT LeftHandPinky4
											{
												OFFSET -0.003841 -0.007591 -0.024912
												CHANNELS 6 Xposition Yposition Zposition Xrotation Yrotation Zrotation
												JOINT LeftHandPinky4_end
												{
													OFFSET -0.010732 -0.008026 -0.022658
													CHANNELS 6 Xposition Yposition Zposition Xrotation Yrotation Zrotation
													End Site
													{
														OFFSET -0.010732 -0.008026 -0.022658
													}
												}
											}
										}
									}
								}
							}
						}
					}
				}
				JOINT RightShoulder
				{
					OFFSET -0.038692 0.021965 0.142141
					CHANNELS 6 Xposition Yposition Zposition Xrotation Yrotation Zrotation
					JOINT RightArm
					{
						OFFSET -0.118440 0.010361 0.000906
						CHANNELS 6 Xposition Yposition Zposition Xrotation Yrotation Zrotation
						JOINT RightForeArm
						{
							OFFSET -0.153326 0.030646 -0.238433
							CHANNELS 6 Xposition Yposition Zposition Xrotation Yrotation Zrotation
							JOINT RightHand
							{
								OFFSET -0.155941 -0.080854 -0.180653
								CHANNELS 6 Xposition Yposition Zposition Xrotation Yrotation Zrotation
								JOINT RightHandThumb1
								{
									OFFSET -0.004171 -0.038401 -0.016615
									CHANNELS 6 Xposition Yposition Zposition Xrotation Yrotation Zrotation
									JOINT RightHandThumb2
									{
										OFFSET 0.002014 -0.036301 -0.019765
										CHANNELS 6 Xposition Yposition Zposition Xrotation Yrotation Zrotation
										JOINT RightHandThumb3
										{
											OFFSET -0.000823 -0.016244 -0.025786
											CHANNELS 6 Xposition Yposition Zposition Xrotation Yrotation Zrotation
											JOINT RightHandThumb4
											{
												OFFSET -0.001716 -0.013480 -0.032563
												CHANNELS 6 Xposition Yposition Zposition Xrotation Yrotation Zrotation
												JOINT RightHandThumb4_end
												{
													OFFSET -0.000960 -0.012830 -0.032855
													CHANNELS 6 Xposition Yposition Zposition Xrotation Yrotation Zrotation
													End Site
													{
														OFFSET -0.000960 -0.012830 -0.032855
													}
												}
											}
										}
									}
								}
								JOINT RightHandIndex1
								{
									OFFSET -0.052686 -0.062069 -0.064549
									CHANNELS 6 Xposition Yposition Zposition Xrotation Yrotation Zrotation
									JOINT RightHandIndex2
									{
										OFFSET -0.016459 -0.018710 -0.037084
										CHANNELS 6 Xposition Yposition Zposition Xrotation Yrotation Zrotation
										JOINT RightHandIndex3
										{
											OFFSET -0.005103 -0.012998 -0.024667
											CHANNELS 6 Xposition Yposition Zposition Xrotation Yrotation Zrotation
											JOINT RightHandIndex4
											{
												OFFSET -0.000566 -0.013992 -0.030805
												CHANNELS 6 Xposition Yposition Zposition Xrotation Yrotation Zrotation
												JOINT RightHandIndex4_end
												{
													OFFSET 0.002422 -0.013317 -0.031014
													CHANNELS 6 Xposition Yposition Zposition Xrotation Yrotation Zrotation
													End Site
													{
														OFFSET 0.002422 -0.013317 -0.031014
													}
												}
											}
										}
									}
								}
								JOINT RightHandMiddle1
								{
									OFFSET -0.056374 -0.037725 -0.074399
									CHANNELS 6 Xposition Yposition Zposition Xrotation Yrotation Zrotation
									JOINT RightHandMiddle2
									{
										OFFSET -0.022036 -0.014551 -0.037296
										CHANNELS 6 Xposition Yposition Zposition Xrotation Yrotation Zrotation
										JOINT RightHandMiddle3
										{
											OFFSET -0.008394 -0.014480 -0.031202
											CHANNELS 6 Xposition Yposition Zposition Xrotation Yrotation Zrotation
											JOINT RightHandMiddle4
											{
												OFFSET 0.005471 -0.010530 -0.032462
												CHANNELS 6 Xposition Yposition Zposition Xrotation Yrotation Zrotation
												JOINT RightHandMiddle4_end
												{
													OFFSET 0.007074 -0.010204 -0.032255
													CHANNELS 6 Xposition Yposition Zposition Xrotation Yrotation Zrotation
													End Site
													{
														OFFSET 0.007074 -0.010204 -0.032255
													}
												}
											}
										}
									}
								}
								JOINT RightHandRing1
								{
									OFFSET -0.053897 -0.012666 -0.079484
									CHANNELS 6 Xposition Yposition Zposition Xrotation Yrotation Zrotation
									JOINT RightHandRing2
									{
										OFFSET -0.019091 -0.007361 -0.036564
										CHANNELS 6 Xposition Yposition Zposition Xrotation Yrotation Zrotation
										JOINT RightHandRing3
										{
											OFFSET -0.003426 -0.009930 -0.034603
											CHANNELS 6 Xposition Yposition Zposition Xrotation Yrotation Zrotation
											JOINT RightHandRing4
											{
												OFFSET -0.000497 -0.008271 -0.028639
												CHANNELS 6 Xposition Yposition Zposition Xrotation Yrotation Zrotation
												JOINT RightHandRing4_end
												{
													OFFSET -0.000080 -0.009525 -0.028250
													CHANNELS 6 Xposition Yposition Zposition Xrotation Yrotation Zrotation
													End Site
													{
														OFFSET -0.000080 -0.009525 -0.028250
													}
												}
											}
										}
									}
								}
								JOINT RightHandPinky1
								{
									OFFSET -0.048475 0.011941 -0.084950
									CHANNELS 6 Xposition Yposition Zposition Xrotation Yrotation Zrotation
									JOINT RightHandPinky2
									{
										OFFSET -0.011101 0.000456 -0.025866
										CHANNELS 6 Xposition Yposition Zposition Xrotation Yrotation Zrotation
										JOINT RightHandPinky3
										{
											OFFSET -0.004511 -0.003758 -0.021592
											CHANNELS 6 Xposition Yposition Zposition Xrotation Yrotation Zrotation
											JOINT RightHandPinky4
											{
												OFFSET 0.000153 -0.007920 -0.025104
												CHANNELS 6 Xposition Yposition Zposition Xrotation Yrotation Zrotation
												JOINT RightHandPinky4_end
												{
													OFFSET 0.007063 -0.009492 -0.023515
													CHANNELS 6 Xposition Yposition Zposition Xrotation Yrotation Zrotation
													End Site
													{
														OFFSET 0.007063 -0.009492 -0.023515
													}
												}
											}
										}
									}
								}
							}
						}
					}
				}
			}
		}
	}
	JOINT LeftUpLeg
	{
		OFFSET 0.095426 -0.004653 0.000675
		CHANNELS 6 Xposition Yposition Zposition Xrotation Yrotation Zrotation
		JOINT LeftLeg
		{
			OFFSET 0.008144 -0.000897 -0.458101
			CHANNELS 6 Xposition Yposition Zposition Xrotation Yrotation Zrotation
			JOINT LeftFoot
			{
				OFFSET 0.008441 0.036166 -0.442303
				CHANNELS 6 Xposition Yposition Zposition Xrotation Yrotation Zrotation
				JOINT LeftToeBase
				{
					OFFSET -0.011601 -0.123185 -0.082738
					CHANNELS 6 Xposition Yposition Zposition Xrotation Yrotation Zrotation
					JOINT LeftToe_End
					{
						OFFSET -0.005232 -0.098831 -0.004587
						CHANNELS 6 Xposition Yposition Zposition Xrotation Yrotation Zrotation
						JOINT LeftToe_End_end
						{
							OFFSET -0.003548 -0.099004 -0.001231
							CHANNELS 6 Xposition Yposition Zposition Xrotation Yrotation Zrotation
							End Site
							{
								OFFSET -0.003548 -0.099004 -0.001231
							}
						}
					}
				}
			}
		}
	}
	JOINT RightUpLeg
	{
		OFFSET -0.094399 0.010988 0.009821
		CHANNELS 6 Xposition Yposition Zposition Xrotation Yrotation Zrotation
		JOINT RightLeg
		{
			OFFSET -0.051887 0.004049 -0.455208
			CHANNELS 6 Xposition Yposition Zposition Xrotation Yrotation Zrotation
			JOINT RightFoot
			{
				OFFSET -0.044618 0.040538 -0.439747
				CHANNELS 6 Xposition Yposition Zposition Xrotation Yrotation Zrotation
				JOINT RightToeBase
				{
					OFFSET -0.016624 -0.122772 -0.082496
					CHANNELS 6 Xposition Yposition Zposition Xrotation Yrotation Zrotation
					JOINT RightToe_End
					{
						OFFSET -0.011441 -0.098320 -0.004288
						CHANNELS 6 Xposition Yposition Zposition Xrotation Yrotation Zrotation
						JOINT RightToe_End_end
						{
							OFFSET -0.012800 -0.098242 -0.000785
							CHANNELS 6 Xposition Yposition Zposition Xrotation Yrotation Zrotation
							End Site
							{
								OFFSET -0.012800 -0.098242 -0.000785
							}
						}
					}
				}
			}
		}
	}
}
MOTION
Frames: 2
Frame Time: 0.041667
0.043977 0.000290 1.010916 0.119020 -0.045122 0.043616 0.004553 -0.002239 0.098342 1.091897 -1.656632 0.690332 0.007462 0.014882 0.129431 2.224709 -3.028284 1.398195 0.007545 0.021619 0.119635 2.224767 -3.028281 1.398223 0.008537 0.013102 0.154787 -10.429117 0.954073 0.832080 0.002391 -0.038956 0.116262 4.319227 4.222986 0.364080 0.007884 -0.036650 0.226318 -0.000015 0.000034 -0.000035 0.006035 0.001186 0.123238 -0.000000 0.000000 0.000000 0.028375 -0.080047 0.089513 -0.000003 0.000007 -0.000008 0.006035 0.001186 0.123237 -0.000000 0.000000 -0.000000 -0.032685 -0.075016 0.092456 -0.000003 0.000007 -0.000008 0.006035 0.001186 0.123238 -0.000000 -0.000000 -0.000001 0.055153 0.014232 0.137620 0.242627 0.065404 -6.502790 0.118080 -0.009128 -0.010491 6.593533 17.435523 -25.888611 0.132790 0.007071 -0.252221 12.333861 5.804512 6.144330 0.122668 -0.103811 -0.194077 -18.853784 -10.605165 4.970543 -0.003761 -0.038434 -0.016635 20.426439 -1.024687 13.145146 -0.009793 -0.035329 -0.019196 -19.185423 0.049137 2.028764 -0.004308 -0.015957 -0.025618 -9.471174 2.500636 0.232755 -0.003627 -0.013323 -0.032471 -0.000043 0.000012 0.000051 -0.004290 -0.012556 -0.032695 -0.000001 0.000000 -0.000002 0.035434 -0.069330 -0.068794 8.622201 5.450502 9.783829 0.009565 -0.020855 -0.038338 2.799065 -0.657580 0.226228 0.000532 -0.013462 -0.024939 -4.025819 -8.118038 3.935577 -0.004672 -0.013653 -0.030608 -0.000024 -0.000002 -0.000012 -0.007514 -0.012498 -0.030535 -0.000006 0.000001 -0.000002 0.042091 -0.045838 -0.079143 2.263164 4.843697 0.128625 0.015700 -0.017660 -0.039114 2.744483 -5.022063 3.126808 0.002898 -0.015410 -0.031746 -8.166505 -20.608206 7.484135 -0.010191 -0.009239 -0.031707 0.000016 -0.000020 -0.000007 -0.011693 -0.008658 -0.031351 0.000002 -0.000006 0.000001 0.043265 -0.020672 -0.084165 -3.845887 8.421324 -6.245785 0.014052 -0.010092 -0.038161 2.910322 -13.861286 4.708378 -0.001563 -0.010084 -0.034693 -0.443971 -4.277056 1.247844 -0.003598 -0.008015 -0.028489 -0.000031 0.000002 0.000047 -0.004174 -0.009188 -0.028053 0.000001 -0.000000 0.000003 0.041437 0.004533 -0.089282 -10.034224 15.445761 -13.339150 0.008505 -0.001159 -0.026812 6.117908 0.933837 1.171862 0.001754 -0.004274 -0.021894 6.285858 -12.377369 3.618298 -0.003841 -0.007591 -0.024912 0.000013 0.000060 0.000017 -0.010732 -0.008026 -0.022658 0.000001 0.000000 -0.000002 -0.038692 0.021965 0.142141 1.050113 2.884935 3.588859 -0.118440 0.010361 0.000906 14.712699 -16.943635 30.822253 -0.153326 0.030646 -0.238433 8.918657 -7.461630 -6.332682 -0.155940 -0.080854 -0.180652 -18.894508 22.463782 -16.801254 -0.004172 -0.038401 -0.016616 19.116146 -4.407408 -18.272277 0.002014 -0.036302 -0.019765 -14.738204 1.600704 0.030464 -0.000823 -0.016244 -0.025786 -9.700151 -1.005056 0.814821 -0.001716 -0.013480 -0.032563 0.000021 0.000039 0.000027 -0.000960 -0.012830 -0.032855 0.000000 -0.000001 -0.000003 -0.052686 -0.062069 -0.064549 3.532083 -4.570008 -8.813842 -0.016459 -0.018710 -0.037083 2.153003 6.153197 -3.554831 -0.005103 -0.012998 -0.024667 -3.050904 8.701426 -3.621458 -0.000566 -0.013992 -0.030805 -0.000031 -0.000034 0.000024 0.002422 -0.013317 -0.031014 -0.000004 -0.000001 -0.000001 -0.056374 -0.037725 -0.074399 1.374912 -7.778577 1.756004 -0.022036 -0.014551 -0.037296 3.042817 4.211423 -3.249390 -0.008394 -0.014480 -0.031202 -5.542767 21.740917 -7.117012 0.005471 -0.010530 -0.032462 -0.000014 0.000014 -0.000044 0.007074 -0.010204 -0.032255 0.000001 -0.000000 0.000003 -0.053897 -0.012666 -0.079484 -8.136878 -11.303323 6.905349 -0.019092 -0.007361 -0.036564 3.768302 12.294326 -4.819992 -0.003426 -0.009931 -0.034603 0.142688 4.303640 -1.250888 -0.000497 -0.008271 -0.028639 -0.000026 0.000014 -0.000025 -0.000080 -0.009525 -0.028251 -0.000002 -0.000000 0.000000 -0.048475 0.011941 -0.084950 -17.031031 -10.343229 11.954290 -0.011101 0.000456 -0.025867 4.178393 0.299819 -2.320403 -0.004511 -0.003758 -0.021592 7.989527 11.174453 -4.367507 0.000153 -0.007920 -0.025104 -0.000022 0.000036 -0.000038 0.007063 -0.009492 -0.023515 -0.000003 0.000002 0.000006 0.095426 -0.004653 0.000675 -15.969442 -3.976024 2.453507 0.008145 -0.000897 -0.458101 13.798361 -0.576287 0.431351 0.008443 0.036166 -0.442303 5.245997 0.117985 18.168163 -0.011603 -0.123185 -0.082737 -0.439425 1.607778 3.443284 -0.005233 -0.098830 -0.004587 -0.000041 0.000147 -0.000070 -0.003548 -0.099004 -0.001231 -0.000000 0.000000 0.000001 -0.094399 0.010988 0.009821 -5.372538 -9.656983 -7.085301 -0.051889 0.004050 -0.455209 7.414555 -0.914350 -0.747181 -0.044621 0.040538 -0.439746 -3.055235 8.086063 -12.176405 -0.016619 -0.122772 -0.082496 -2.643641 0.811463 1.098461 -0.011437 -0.098320 -0.004288 -0.000037 -0.000292 0.000087 -0.012800 -0.098242 -0.000785 -0.000000 -0.000000 0.000004 
0.044259 0.000434 1.010913 0.102596 -0.050442 0.098817 0.004553 -0.002239 0.098342 1.097785 -1.660463 0.690220 0.007462 0.014882 0.129431 2.236531 -3.035888 1.398159 0.007545 0.021619 0.119635 2.236586 -3.035888 1.398188 0.008537 0.013102 0.154787 -10.414217 0.955936 0.833851 0.002391 -0.038956 0.116262 4.355569 4.219001 0.364724 0.007884 -0.036650 0.226318 -0.000015 0.000035 -0.000035 0.006035 0.001186 0.123238 0.000000 0.000001 0.000001 0.028375 -0.080047 0.089514 -0.000003 0.000007 -0.000007 0.006035 0.001186 0.123238 -0.000000 0.000000 0.000000 -0.032685 -0.075016 0.092456 -0.000003 0.000007 -0.000008 0.006035 0.001186 0.123238 0.000000 0.000000 -0.000000 0.055153 0.014232 0.137620 0.241104 0.050421 -6.488105 0.118080 -0.009128 -0.010491 6.354354 17.593831 -25.967537 0.132790 0.007071 -0.252221 12.841694 5.836829 6.451565 0.122668 -0.103811 -0.194077 -19.153626 -10.548577 4.814784 -0.003761 -0.038434 -0.016635 20.426441 -1.024680 13.145142 -0.009793 -0.035329 -0.019196 -19.185424 0.049135 2.028760 -0.004308 -0.015957 -0.025618 -9.471177 2.500638 0.232754 -0.003627 -0.013323 -0.032471 -0.000041 0.000012 0.000049 -0.004290 -0.012556 -0.032695 -0.000003 0.000002 -0.000003 0.035434 -0.069330 -0.068794 8.622195 5.450473 9.783828 0.009565 -0.020855 -0.038338 2.815192 -0.597802 0.194340 0.000532 -0.013462 -0.024939 -4.025824 -8.118036 3.935576 -0.004672 -0.013653 -0.030608 -0.000023 -0.000003 -0.000010 -0.007514 -0.012498 -0.030535 -0.000007 0.000001 0.000001 0.042090 -0.045838 -0.079143 2.261818 4.827839 0.135338 0.015700 -0.017660 -0.039114 2.746147 -4.986662 3.110188 0.002898 -0.015410 -0.031746 -8.166506 -20.608207 7.484131 -0.010191 -0.009239 -0.031707 0.000018 -0.000022 -0.000006 -0.011693 -0.008658 -0.031351 0.000003 -0.000006 -0.000002 0.043265 -0.020672 -0.084165 -3.861123 8.247743 -6.196261 0.014052 -0.010092 -0.038161 2.928543 -14.033821 4.762944 -0.001563 -0.010084 -0.034694 -0.443973 -4.277056 1.247843 -0.003598 -0.008015 -0.028489 -0.000031 0.000005 0.000044 -0.004174 -0.009187 -0.028053 0.000004 0.000001 0.000001 0.041437 0.004533 -0.089282 -10.016101 15.706794 -13.374763 0.008505 -0.001159 -0.026812 6.073110 1.187714 1.120278 0.001754 -0.004274 -0.021894 6.285857 -12.377368 3.618300 -0.003841 -0.007591 -0.024912 0.000009 0.000068 0.000016 -0.010732 -0.008026 -0.022658 -0.000003 -0.000001 0.000000 -0.038692 0.021965 0.142141 1.050355 2.893578 3.604707 -0.118440 0.010361 0.000906 14.572567 -17.001316 30.842283 -0.153326 0.030646 -0.238433 9.158002 -7.525249 -6.537794 -0.155941 -0.080854 -0.180652 -19.068964 22.474478 -16.771651 -0.004172 -0.038401 -0.016616 19.116144 -4.407405 -18.272277 0.002014 -0.036302 -0.019765 -14.738208 1.600704 0.030466 -0.000823 -0.016244 -0.025786 -9.700148 -1.005054 0.814822 -0.001716 -0.013480 -0.032563 0.000021 0.000039 0.000027 -0.000960 -0.012830 -0.032855 -0.000000 -0.000000 -0.000002 -0.052686 -0.062069 -0.064549 3.491564 -4.692295 -8.788999 -0.016459 -0.018710 -0.037083 2.130993 6.026124 -3.525237 -0.005103 -0.012999 -0.024667 -3.050906 8.701425 -3.621459 -0.000566 -0.013992 -0.030805 -0.000026 -0.000033 0.000023 0.002422 -0.013317 -0.031014 -0.000002 -0.000001 -0.000000 -0.056374 -0.037725 -0.074399 1.373799 -7.838631 1.781012 -0.022036 -0.014551 -0.037296 3.037634 4.152729 -3.221189 -0.008394 -0.014480 -0.031202 -5.542766 21.740916 -7.117012 0.005470 -0.010530 -0.032462 -0.000014 0.000015 -0.000046 0.007074 -0.010204 -0.032255 -0.000001 -0.000001 0.000001 -0.053897 -0.012666 -0.079484 -8.137365 -11.373605 6.923952 -0.019092 -0.007361 -0.036564 3.753877 12.226080 -4.796239 -0.003426 -0.009931 -0.034603 0.142688 4.303638 -1.250888 -0.000497 -0.008271 -0.028639 -0.000026 0.000015 -0.000025 -0.000080 -0.009525 -0.028250 -0.000002 -0.000001 0.000000 -0.048475 0.011941 -0.084950 -17.091018 -10.404904 11.969148 -0.011101 0.000456 -0.025867 4.159751 0.231204 -2.304996 -0.004511 -0.003758 -0.021592 7.989529 11.174452 -4.367503 0.000153 -0.007920 -0.025104 -0.000028 0.000038 -0.000037 0.007063 -0.009492 -0.023515 -0.000001 0.000001 0.000003 0.095426 -0.004653 0.000675 -15.975386 -3.948620 2.461741 0.008145 -0.000897 -0.458101 13.805575 -0.576535 0.431314 0.008443 0.036166 -0.442303 5.259208 0.124873 18.138305 -0.011603 -0.123185 -0.082737 -0.451060 1.576622 3.432748 -0.005233 -0.098830 -0.004587 -0.000041 0.000148 -0.000072 -0.003548 -0.099004 -0.001231 -0.000000 -0.000000 0.000004 -0.094399 0.010988 0.009821 -5.376216 -9.633062 -7.081288 -0.051889 0.004050 -0.455209 7.443988 -0.918357 -0.749569 -0.044621 0.040538 -0.439746 -3.075332 8.071050 -12.230921 -0.016619 -0.122772 -0.082496 -2.649852 0.811931 1.100025 -0.011437 -0.098320 -0.004288 -0.000037 -0.000292 0.000084 -0.012800 -0.098242 -0.000785 -0.000000 -0.000000 0.000005 
